<?xml version="1.0" encoding="utf-8"?>
<!-- Uploaded to: SVG Repo, www.svgrepo.com, Generator: SVG Repo Mixer Tools -->
<svg width="800px" height="800px" viewBox="-164.69 0 469.968 469.968" xmlns="http://www.w3.org/2000/svg"><defs><style>.a{fill:#ffffff;}.b{fill:#bdbdbd;}.c{fill:#211715;}.d{fill:#3f88c9;}.e{fill:#645d5c;}</style></defs><path class="a" d="M100.565,52.058a4.555,4.555,0,0,1,3.644-1.066,4.3,4.3,0,0,1,3.092,2.056,6.077,6.077,0,0,1,.637,2.446,18.227,18.227,0,0,1-1.858,9.658,11.584,11.584,0,0,1-3,3.93,7.684,7.684,0,0,1-3.57,1.61l-.612.094c-.293,1.1-.622,2.02-.783,2.511C97.148,75.935,92,84.641,85.351,88.675a48.367,48.367,0,0,0,.769,8.813c.437,2.492.3,4.719,3.764,5.969.229.083,2.154.843,2.672,1.071,0,0-1.474,14.6-22.363,14.6s-22.446-14.8-22.446-14.8c.425-.181,1.862-.783,2.091-.866,3.464-1.25,3.327-3.477,3.764-5.969a48.062,48.062,0,0,0,.765-9.059A28.107,28.107,0,0,1,47.561,82.4a30.975,30.975,0,0,1-5.905-11.528l-1.164-.177a7.675,7.675,0,0,1-3.57-1.61,11.584,11.584,0,0,1-2.995-3.93,18.218,18.218,0,0,1-1.858-9.658,6.077,6.077,0,0,1,.637-2.446A4.3,4.3,0,0,1,35.8,50.992a4.556,4.556,0,0,1,3.644,1.066S32.86,17.345,70.193,18.678,100.565,52.058,100.565,52.058Z"/><path class="b" d="M105.8,31.432a40.189,40.189,0,0,0-4.948-13.275C97.681,12.78,89.784,5.264,76.4,2.588c-5.128-1.026-15.689-1.2-23.533,3.831-.269.173-.536.352-.8.537a26.193,26.193,0,0,1-2.958,2.077c-.394.178-1.685.785-2.1.891C40.415,13.79,36.6,18.6,34.637,26.456c-2.118,8.481-1.4,19,.637,24.652a3.574,3.574,0,0,1,.524-.116,4.556,4.556,0,0,1,3.644,1.066l3.425-5.178c.414-5.084,2.868-15.851,10.7-18.418,4.178-1.117,9.363-3.117,17.733-3.043,4.924.044,12.45.007,16.33,3.038C95,33.172,97.763,43.254,97.748,46.88l2.817,5.178a4.555,4.555,0,0,1,3.644-1.066,4.455,4.455,0,0,1,.8.2A47.637,47.637,0,0,0,105.8,31.432Z"/><path class="c" d="M93.565,102.8c-1.08-.468-2.187-.867-3.273-1.319a3.479,3.479,0,0,1-1.336-.9c-.315-.321.095.247-.094-.143-.06-.122-.133-.243-.2-.362-.111-.2.084.307-.019-.052-.045-.16-.1-.314-.143-.475a37.458,37.458,0,0,1-.741-4.405,45.753,45.753,0,0,1-.41-6.47c.013-2.575-3.987-2.578-4,0a51.23,51.23,0,0,0,.532,7.382,30.073,30.073,0,0,0,.854,4.875,6.46,6.46,0,0,0,3.222,3.859c.681.35,1.413.6,2.124.879q.507.2,1.013.4l.4.161c.492.2-.2-.088.051.02a2.067,2.067,0,0,0,2.737-.717,2.015,2.015,0,0,0-.718-2.737Z"/><path class="c" d="M52.367,88.44a50.632,50.632,0,0,1-1.034,10.618,7.825,7.825,0,0,1-.2.811c-.016.051-.18.477-.071.222s-.086.158-.112.205a2.185,2.185,0,0,1-.814.825,27.354,27.354,0,0,1-3.393,1.476,2.012,2.012,0,0,0-.718,2.736,2.054,2.054,0,0,0,2.737.717c.36-.153-.48.2.036-.015l.516-.216c.284-.118.568-.238.853-.352a11.231,11.231,0,0,0,2.249-1.063,6.535,6.535,0,0,0,2.707-3.953,49.957,49.957,0,0,0,.811-5.061,48.509,48.509,0,0,0,.438-6.95c-.03-2.572-4.03-2.579-4,0Z"/><path class="c" d="M101.979,53.472a2.476,2.476,0,0,1,3.521.464,5.177,5.177,0,0,1,.5,2.619,15.378,15.378,0,0,1-.218,3.171c-.688,3.77-2.607,8.286-6.8,9.037a2.018,2.018,0,0,0-1.4,2.46,2.044,2.044,0,0,0,2.46,1.4c6.375-1.143,9.415-8.341,9.895-14.119.246-2.964.009-6.353-2.556-8.274a6.589,6.589,0,0,0-8.235.417,2.015,2.015,0,0,0,0,2.828,2.044,2.044,0,0,0,2.829,0Z"/><path class="c" d="M97.468,67.3a17.2,17.2,0,0,1-1,4.643c-.09.273-.193.545-.275.821-.037.126-.2.478.025-.038-.141.325-.293.645-.453.962A38.963,38.963,0,0,1,92.4,79.1c-2.936,4.026-6.921,8.292-11.949,9.471-2.5.588-1.445,4.446,1.063,3.858,6-1.407,10.648-6.31,14.175-11.085,3.047-4.125,5.569-8.8,5.782-14.043.1-2.574-3.9-2.569-4,0Z"/><path class="c" d="M40.856,50.644a6.591,6.591,0,0,0-8.235-.417c-2.566,1.915-2.8,5.314-2.555,8.274.48,5.777,3.52,12.976,9.894,14.119a2.057,2.057,0,0,0,2.461-1.4,2.017,2.017,0,0,0-1.4-2.46c-4.189-.751-6.109-5.267-6.8-9.037a15.243,15.243,0,0,1-.22-2.994,5.944,5.944,0,0,1,.426-2.675,2.461,2.461,0,0,1,3.595-.585,2.053,2.053,0,0,0,2.828,0,2.015,2.015,0,0,0,0-2.828Z"/><path class="c" d="M38.747,67.031a35.4,35.4,0,0,0,7.538,16.944c4.243,5.023,9.858,8.654,16.472,9.368a2.012,2.012,0,0,0,2-2,2.045,2.045,0,0,0-2-2c-5.669-.612-10.4-4.243-13.922-8.531-3.469-4.23-5.3-9.518-6.231-14.845a2.017,2.017,0,0,0-2.46-1.4,2.044,2.044,0,0,0-1.4,2.46Z"/><path class="c" d="M44.867,46.88c.03-.349.067-.7.106-1.046.012-.108.082-.6.014-.121.024-.171.05-.342.076-.512q.19-1.209.467-2.4a30.193,30.193,0,0,1,1.588-4.962,22.37,22.37,0,0,1,1.328-2.54,12.493,12.493,0,0,1,1.509-2.055A9.836,9.836,0,0,1,54.1,30.39a2.046,2.046,0,0,0,1.4-2.46,2.018,2.018,0,0,0-2.46-1.4C44.8,29.328,41.534,38.966,40.867,46.88a2.016,2.016,0,0,0,2,2,2.04,2.04,0,0,0,2-2Z"/><path class="c" d="M86.625,30.184a20.282,20.282,0,0,1,7.105,8.9,28.045,28.045,0,0,1,1.528,4.49c.165.665.283,1.335.406,2.008.079.434-.031-.408.014.124.012.134.028.268.039.4.02.256.031.512.031.769.01,2.573,4.01,2.578,4,0a24.8,24.8,0,0,0-2.564-9.813,23.977,23.977,0,0,0-8.54-10.337c-2.163-1.41-4.17,2.052-2.019,3.454Z"/><path class="c" d="M64.83,26.122c.029-.075.059-.149.09-.223l-.2.478a8.409,8.409,0,0,1,1.064-1.809l-.313.4a9.37,9.37,0,0,1,1.639-1.631l-.405.313a9.762,9.762,0,0,1,2.118-1.23l-.478.2c.212-.087.426-.168.642-.241a2.126,2.126,0,0,0,1.2-.919,2,2,0,0,0-2.259-2.938,11.857,11.857,0,0,0-4.279,2.524,10.672,10.672,0,0,0-2.67,4.007,2,2,0,0,0,.2,1.541,2,2,0,0,0,2.736.717,2.3,2.3,0,0,0,.919-1.2Z"/><path class="c" d="M72.638,27.445a16.052,16.052,0,0,1,2.171-1.2c.1-.046.2-.091.3-.135q-.332.141-.014.011c.21-.076.417-.159.628-.232q.555-.194,1.124-.347c.379-.1.763-.192,1.149-.268.221-.044.443-.078.665-.118s.223-.033-.029,0l.336-.039a17.348,17.348,0,0,1,2.538-.073,2.014,2.014,0,0,0,2-2,2.043,2.043,0,0,0-2-2,18.589,18.589,0,0,0-10.89,2.947,2,2,0,1,0,2.018,3.454Z"/><path class="c" d="M107.332,49.962c2.146-10.616,1.26-21.593-3.874-31.247C99.636,11.527,92.943,6.382,85.521,3.278A39.668,39.668,0,0,0,58.562,1.637,27.485,27.485,0,0,0,51.7,4.8,29.411,29.411,0,0,1,46.479,8a21.479,21.479,0,0,0-5.947,4.171,24.8,24.8,0,0,0-4.107,4.848c-3.125,4.816-4.415,10.641-4.886,16.29a47.872,47.872,0,0,0,1.442,17.224c.722,2.465,4.583,1.416,3.857-1.063A43.466,43.466,0,0,1,35.4,35.646,35.785,35.785,0,0,1,38.343,21.8,22.038,22.038,0,0,1,45.891,13a12.679,12.679,0,0,1,2.3-1.386,15.6,15.6,0,0,0,2.6-1.237,49.514,49.514,0,0,1,5.954-3.8c7.46-3.453,16.394-3.237,24.038-.8,6.932,2.207,13.876,6.492,17.852,12.592,5.854,8.981,6.93,20.205,4.843,30.528-.508,2.513,3.347,3.588,3.858,1.063Z"/><path class="c" d="M64.377,76.611a12.717,12.717,0,0,0,6.12,1.426,10.063,10.063,0,0,0,6.27-1.889,2,2,0,0,0,0-2.829,2.062,2.062,0,0,0-2.828,0c.686-.534-.065.014-.284.129-.17.089-.635.23-.021.029-.169.055-.332.128-.5.183-.213.068-.43.127-.648.177-.151.036-.654.044-.756.143.109-.106.364-.042-.008-.005-.137.013-.275.025-.414.034q-.5.032-1,.028c-.3,0-.6-.012-.893-.032-.137-.01-.273-.021-.409-.034l-.233-.026c-.156-.019-.1-.012.16.021a2.183,2.183,0,0,1-.672-.125q-.322-.072-.639-.166c-.184-.055-.363-.121-.544-.183-.462-.158.4.195-.016,0-.225-.106-.446-.216-.666-.332a2,2,0,1,0-2.019,3.454Z"/><path class="c" d="M69.266,62.471a27.711,27.711,0,0,1,.649,2.972l-.071-.531a1.814,1.814,0,0,1,.011.41l.071-.532a.908.908,0,0,1-.045.185l.2-.478a.762.762,0,0,1-.065.119l.313-.405a.685.685,0,0,1-.1.1l.405-.313a1.881,1.881,0,0,1-.235.124l.478-.2a1.773,1.773,0,0,1-.4.116l.532-.072a1.551,1.551,0,0,1-.373,0l.532.072c-.141-.02-.278-.054-.419-.073a1.523,1.523,0,0,0-.8-.036,1.5,1.5,0,0,0-.744.238A2,2,0,0,0,68.5,66.9a1.914,1.914,0,0,0,1.2.919c.362.049.713.14,1.081.156a3.528,3.528,0,0,0,1.648-.4,2.481,2.481,0,0,0,1.344-1.623,3.868,3.868,0,0,0-.014-1.7c-.162-.957-.383-1.906-.629-2.845a2,2,0,0,0-2.46-1.4,2.022,2.022,0,0,0-1.2.919,2.1,2.1,0,0,0-.2,1.541Z"/><path class="c" d="M54.009,53.927c-.5,1.613-.173,5.324,2.883,5.64,4.039-.025,4.254-4.511,2.894-6.62C58.673,51.22,55.4,50.5,54.009,53.927Z"/><path class="c" d="M86.352,53.927c.5,1.613.173,5.324-2.883,5.64-4.039-.025-4.254-4.511-2.894-6.62C81.688,51.22,84.961,50.5,86.352,53.927Z"/><path class="c" d="M80.633,72.522c.116.128.228.259.333.4l-.312-.405a6.043,6.043,0,0,1,.751,1.3l-.2-.478A5.911,5.911,0,0,1,81.6,74.78a2.238,2.238,0,0,0,.919,1.195,2,2,0,0,0,2.737-.718l.2-.477a2,2,0,0,0,0-1.064,7.766,7.766,0,0,0-1.993-4.022,2,2,0,0,0-3.414,1.414,2.161,2.161,0,0,0,.586,1.414Z"/><path class="a" d="M123.815,240.629a188.236,188.236,0,0,0-4.174,24.687,2.074,2.074,0,0,0,3.493,1.658c.653-.624,1.634-1.556,2.1-2.095a16.851,16.851,0,0,1,2.207-2.413,20.481,20.481,0,0,1,.463,5.545c-.236,6.416.1,6.05-1.387,12.559-.41,1.8-.107,3.256.36,3.594,2.978,2.156,6.53,0,8.28-2.285a14.082,14.082,0,0,0,1.889-3.464c2.493-6.371,1.642-12.5.1-19.161s-3.743-13.271-3.857-20.112"/><path class="a" d="M16.875,240.214a194.192,194.192,0,0,1,4.092,25.1,2.074,2.074,0,0,1-3.493,1.658c-.653-.624-1.634-1.556-2.1-2.095a16.911,16.911,0,0,0-2.208-2.413,20.435,20.435,0,0,0-.462,5.545c.235,6.416-.1,6.05,1.386,12.559.411,1.8.107,3.256-.36,3.594-2.978,2.156-6.53,0-8.28-2.285a14.082,14.082,0,0,1-1.889-3.464c-2.493-6.371-1.642-12.5-.1-19.161s3.743-13.271,3.857-20.112"/><path class="d" d="M90.33,100.7a168,168,0,0,1,28.738,12.489,32.418,32.418,0,0,1,4.747,3.1c-1.088,13.491-3.874,20.877-7.5,40.373-.859,4.617-1.181,47.1-1.181,51.818a222.388,222.388,0,0,0,1.178,26.337c-21.339-.264-70.186-.529-91.846-.8a223.143,223.143,0,0,0,1.1-25.541c0-4.721-.323-47.2-1.182-51.818-3.628-19.5-6.414-26.882-7.5-40.373a32.428,32.428,0,0,1,4.748-3.1,166.312,166.312,0,0,1,27.212-11.969,23.13,23.13,0,0,1,4.81-6.594,46.208,46.208,0,0,0,13.334,9.293c.276.125.584.278.673.568a1.072,1.072,0,0,1-.154.753h4.856a1.072,1.072,0,0,1-.154-.753c.089-.29.4-.443.673-.568a46.208,46.208,0,0,0,13.334-9.293,22.832,22.832,0,0,1,4.647,6.278"/><path class="c" d="M67.5,107.236h4.856a2.069,2.069,0,0,0,1.415-.586,2,2,0,0,0-1.415-3.414H67.5a2.068,2.068,0,0,0-1.415.585,2,2,0,0,0,1.415,3.415Z"/><path class="a" d="M96.432,434.133a4.079,4.079,0,0,0,1.617-1.9,30.794,30.794,0,0,1-1.39-4.334,168.771,168.771,0,0,1-19.513-.719l-.019,2.727A23.9,23.9,0,0,0,92.153,435.1,8.371,8.371,0,0,0,96.432,434.133Z"/><path class="a" d="M45.921,428.021a30.694,30.694,0,0,1-1.363,4.209,4.076,4.076,0,0,0,1.618,1.9,8.365,8.365,0,0,0,4.278.966A23.9,23.9,0,0,0,65.48,429.9l-.019-2.73A142.679,142.679,0,0,1,45.921,428.021Z"/><path class="c" d="M44.791,420.981A28.71,28.71,0,0,1,41.607,433.9a2.046,2.046,0,0,0,.717,2.736,2.021,2.021,0,0,0,2.737-.717,33.169,33.169,0,0,0,3.73-14.94,2,2,0,0,0-4,0Z"/><path class="c" d="M63.426,422.021l.085,12.46a2,2,0,0,0,4,0l-.085-12.46a2,2,0,0,0-4,0Z"/><path class="c" d="M93.816,420.981a33.17,33.17,0,0,0,3.731,14.94A2,2,0,0,0,101,433.9a28.71,28.71,0,0,1-3.184-12.921,2,2,0,0,0-4,0Z"/><path class="c" d="M75.181,422.021l-.085,12.46a2,2,0,0,0,4,0l.085-12.46a2,2,0,0,0-4,0Z"/><path class="a" d="M71.087,426.3c9.392,1.953,31.386,2.187,36.318.542.446-7.365,1.259-80.473,3.246-113.47,1.672-27.78,2.988-61.11,4.619-78.508-19.195-.293-69.635-.6-88.785-.916,1.651,17.269,3.488,51.4,5.175,79.424,1.986,33,2.8,106.105,3.245,113.47,4.933,1.645,24.116,1.761,35.557-.426"/><path class="c" d="M121.115,243.173a130.621,130.621,0,0,0-3.454,21.9,4.124,4.124,0,0,0,5.262,4.289c2.574-.8,3.97-3.846,5.93-5.483L125.51,263a32.106,32.106,0,0,1,.336,6.71c-.05,1.776-.024,3.572-.251,5.337-.5,3.91-3.478,10.471,2.512,11.842s10.027-4.868,11.475-9.712c1.722-5.757.979-11.765-.3-17.526-1.508-6.8-3.83-13.484-4-20.507-.061-2.57-4.061-2.579-4,0,.131,5.566,1.5,10.966,2.866,16.331,1.3,5.112,2.7,10.351,2.432,15.673-.2,3.986-1.649,10.786-6.335,11.826a2.908,2.908,0,0,1-1.08.058,4.524,4.524,0,0,1-.591-.17c-.516-.148-.367-.284-.2.036-.316-.59.144-2.156.311-2.909a46.226,46.226,0,0,0,.673-18.053c-.287-1.616-2.3-1.749-3.343-.882-1.544,1.289-2.7,3.023-4.19,4.4-.2.183-.133.241.023.093-.033.031-.258.018-.259-.032,0-.268.078.411.042-.042a23.988,23.988,0,0,1,.391-4.271,141.4,141.4,0,0,1,2.941-16.961c.588-2.5-3.268-3.573-3.857-1.064Z"/><path class="a" d="M129.932,124.061a21.186,21.186,0,0,0-6.195-7.492c-1.089,13.49-3.875,20.877-7.5,40.373-.859,4.617-1.182,47.1-1.182,51.817a285.006,285.006,0,0,0,1.44,32.619l18.343-1.875a2.49,2.49,0,0,0,2.183-2.6c-1.676-33.334-3.352-70.228-5.028-103.574A23.9,23.9,0,0,0,129.932,124.061Z"/><path class="c" d="M89.715,102.624A176.832,176.832,0,0,1,107.9,109.8c2.9,1.353,5.748,2.795,8.566,4.3a33.149,33.149,0,0,1,8.074,5.576,17.3,17.3,0,0,1,4.245,6.574,27.526,27.526,0,0,1,1.242,7.694q.526,10.5,1.033,21,1.047,21.624,2.067,43.251.513,10.728,1.034,21.458.255,5.256.516,10.513.123,2.478.247,4.956a10.44,10.44,0,0,1,.03,2.191c-.017.105-.627.34-.141.2a17.639,17.639,0,0,1-3,.321l-5.977.641-8.5.911a2.059,2.059,0,0,0-2,2,2.013,2.013,0,0,0,2,2c5.712-.612,11.428-1.193,17.136-1.837a4.7,4.7,0,0,0,4.419-3.469c.4-1.6,0-3.567-.081-5.2l-.27-5.434q-.547-11.1-1.078-22.2-1.093-22.821-2.179-45.643-.531-11.026-1.078-22.052c-.3-5.961-.444-11.95-3.877-17.094-4.251-6.37-11.393-9.73-18.063-12.979a183.007,183.007,0,0,0-21.492-8.7c-2.444-.827-3.493,3.035-1.064,3.857Z"/><path class="c" d="M15.636,244.237A141.4,141.4,0,0,1,18.577,261.2c.148,1.356.145,2.78.39,4.118.021.113.058.553.05.126,0,.019-.006.037-.006.056,0,.075.072.065-.126.045-.4-.041.233.171,0,.017-1.719-1.152-2.73-3.194-4.3-4.508-1.038-.867-3.056-.734-3.343.882a49.213,49.213,0,0,0-.358,11.647,33.56,33.56,0,0,0,.668,4.72,34.642,34.642,0,0,1,.714,3.391,3.838,3.838,0,0,1-.067,1.257c.018-.078.25-.323.181-.282a2.771,2.771,0,0,1-.762.318c-1.812.438-3.7-1.12-4.7-2.469a16.744,16.744,0,0,1-2.727-7.487c-.748-5.2.5-10.494,1.746-15.514,1.505-6.054,3.234-12.092,3.382-18.373.061-2.575-3.939-2.574-4,0-.285,12.093-7.182,23.605-4.835,35.83,1,5.212,4.071,11.511,10.048,12.054,2.375.215,5.1-.926,5.613-3.43s-.536-5.122-.974-7.576a35.6,35.6,0,0,1-.383-5.248A37.963,37.963,0,0,1,15.1,263l-3.343.882c1.974,1.648,3.35,4.649,5.93,5.483a4.124,4.124,0,0,0,5.262-4.289,130.621,130.621,0,0,0-3.454-21.9c-.588-2.5-4.446-1.444-3.857,1.064Z"/><path class="a" d="M10.676,124.061a21.179,21.179,0,0,1,6.2-7.492c1.088,13.49,3.874,20.877,7.5,40.373.86,4.617,1.182,47.1,1.182,51.817a285.006,285.006,0,0,1-1.44,32.619L5.773,239.5a2.49,2.49,0,0,1-2.183-2.6c1.676-33.334,3.352-70.228,5.028-103.574A23.919,23.919,0,0,1,10.676,124.061Z"/><path class="c" d="M121.815,116.285c-.744,9.072-2.856,17.876-4.782,26.749a138.038,138.038,0,0,0-2.829,14.427c-.23,2.158-.287,4.339-.367,6.506-.517,13.885-.61,27.794-.694,41.688a274.4,274.4,0,0,0,1.427,31.611,2.06,2.06,0,0,0,2,2,2.012,2.012,0,0,0,2-2c-1.758-16.059-1.474-32.155-1.264-48.278.1-7.558.212-15.117.45-22.671.082-2.6.16-5.2.355-7.79.027-.356.063-.711.093-1.066.017-.2.151-.713-.013.044.057-.261.093-.546.141-.8q.9-4.806,1.912-9.59c2.162-10.239,4.713-20.365,5.571-30.826.211-2.565-3.79-2.552-4,0Z"/><path class="c" d="M49.829,98.767A185.562,185.562,0,0,0,30.5,106.43c-6,2.811-12.516,5.683-17.269,10.418-4.244,4.229-6.176,9.6-6.572,15.5-.485,7.211-.724,14.448-1.074,21.667Q4.484,176.806,3.409,199.6q-.534,11.174-1.078,22.348-.267,5.46-.539,10.922c-.154,3.092-.881,7.118,2.833,8.4a16.179,16.179,0,0,0,3.432.473l5.968.639,9.241.991a2.013,2.013,0,0,0,2-2,2.045,2.045,0,0,0-2-2L6.5,237.581a4.134,4.134,0,0,1-.706-.076c.382.113-.045-.03-.075-.125a6.59,6.59,0,0,1-.037-2.263q.261-5.208.516-10.418.525-10.669,1.034-21.341,1.037-21.651,2.067-43.3.51-10.581,1.033-21.163c.275-5.536.1-11.291,3.2-16.134,3.838-5.982,11.02-9.032,17.184-12.015a174.679,174.679,0,0,1,20.175-8.12c2.425-.821,1.384-4.685-1.064-3.857Z"/><path class="c" d="M14.875,116.285c.754,9.188,2.808,18.106,4.769,27.091q.9,4.126,1.735,8.267.506,2.526.979,5.058c.046.243.078.493.132.734-.018-.079-.05-.521,0,.026.183,2.166.287,4.334.368,6.506.516,13.885.61,27.794.694,41.688a274.4,274.4,0,0,1-1.428,31.611,2.013,2.013,0,0,0,2,2,2.047,2.047,0,0,0,2-2c1.758-16.059,1.474-32.155,1.264-48.278-.1-7.558-.211-15.117-.45-22.671-.082-2.6-.159-5.2-.354-7.79a91.19,91.19,0,0,0-2.111-11.691c-2.124-10.147-4.744-20.188-5.594-30.551-.209-2.547-4.21-2.57-4,0Z"/><path class="c" d="M26.485,235.946c10.993.178,21.988.264,32.983.365q19.64.18,39.279.364c5.522.058,11.044.117,16.566.207,2.575.041,2.575-3.959,0-4-10.994-.178-21.989-.264-32.983-.365q-19.64-.18-39.279-.365c-5.522-.057-11.044-.116-16.566-.206-2.575-.041-2.576,3.959,0,4Z"/><path class="c" d="M24.485,233.946c1.436,15.085,2.257,30.235,3.161,45.359.91,15.207,1.939,30.416,2.6,45.637.57,13.1.933,26.209,1.257,39.318q.476,19.254.83,38.512c.152,7.68.215,15.37.523,23.046.014.341.029.682.049,1.022a2.077,2.077,0,0,0,1.468,1.928,28.762,28.762,0,0,0,6.56,1.007c3.095.241,6.206.306,9.31.289a115.948,115.948,0,0,0,20.75-1.721c2.527-.476,1.457-4.332-1.063-3.857a110,110,0,0,1-19.687,1.578c-3.012.017-6.028-.045-9.032-.268a22.923,22.923,0,0,1-5.774-.885l1.468,1.929c-.4-6.678-.361-13.4-.493-20.086q-.373-18.783-.79-37.565c-.315-13.343-.669-26.688-1.2-40.025-.574-14.413-1.53-28.808-2.381-43.207-.942-15.95-1.824-31.914-3.18-47.836q-.178-2.088-.376-4.175a2.055,2.055,0,0,0-2-2,2.015,2.015,0,0,0-2,2Z"/><path class="c" d="M113.313,234.414c-1.441,15.164-2.062,30.414-2.85,45.622-.784,15.106-1.766,30.207-2.417,45.319-.563,13.073-.924,26.154-1.246,39.234q-.472,19.156-.825,38.315c-.151,7.636-.214,15.282-.521,22.914-.014.341-.028.682-.049,1.022l1.469-1.929a12.836,12.836,0,0,1-1.908.429c-.631.1-1.358.179-2.307.261-2.357.2-4.725.282-7.09.316a164.85,164.85,0,0,1-16.543-.561,64.668,64.668,0,0,1-7.407-.986c-2.513-.514-3.588,3.341-1.063,3.857a96.472,96.472,0,0,0,15.388,1.557,138.3,138.3,0,0,0,16.109-.134,25.661,25.661,0,0,0,5.884-.882,2.071,2.071,0,0,0,1.468-1.928c.394-6.637.359-13.318.491-19.962q.371-18.6.781-37.2c.313-13.315.665-26.631,1.189-39.94.564-14.341,1.5-28.665,2.248-43,.834-16.034,1.518-32.092,2.826-48.1q.173-2.118.373-4.233a2.015,2.015,0,0,0-2-2,2.043,2.043,0,0,0-2,2Z"/><path class="c" d="M69.3,282.729c-.538,5.888-.468,11.849-.464,17.755,0,7.105.11,14.209.176,21.314.074,8.029.021,16.06,0,24.09q-.033,16.512-.062,33.024-.024,15.762-.014,31.524.009,5.4.039,10.792c.012,1.634-.053,3.3.082,4.932a2.289,2.289,0,0,0,1.012,1.865,2.011,2.011,0,0,0,2.736-.717,2.051,2.051,0,0,0-.717-2.737h0l.717.718c.118.219.245,1.376.242.659,0-.266-.017-.533-.023-.8-.021-.934-.03-1.87-.038-2.805-.03-3.287-.037-6.575-.044-9.863q-.032-15.251,0-30.5.022-16.613.061-33.227c.016-7.719.066-15.439.029-23.158-.063-13.175-.6-26.4.037-39.565.054-1.1.122-2.2.223-3.3a2.016,2.016,0,0,0-2-2,2.042,2.042,0,0,0-2,2Z"/><path class="a" d="M80.605,115.458c4.281-4.255,7.086-9.41,10.249-14.558a22.832,22.832,0,0,0-4.647-6.278,46.208,46.208,0,0,1-13.334,9.293c-.276.125-.584.278-.673.568a1.072,1.072,0,0,0,.154.753,43.453,43.453,0,0,0,2.758,3.561C76.989,111.093,79.345,113.906,80.605,115.458Z"/><path class="a" d="M59.247,115.458C54.966,111.2,52.162,106.048,49,100.9a22.808,22.808,0,0,1,4.646-6.278,46.208,46.208,0,0,0,13.334,9.293c.276.125.584.278.673.568a1.072,1.072,0,0,1-.154.753A43.453,43.453,0,0,1,64.74,108.8C62.863,111.093,60.507,113.906,59.247,115.458Z"/><path class="c" d="M82.019,116.872a59.559,59.559,0,0,0,8.37-11.348c.6-.994,1.2-1.991,1.806-2.984a2.9,2.9,0,0,0,.623-1.906,5.222,5.222,0,0,0-.817-1.8,24.3,24.3,0,0,0-4.38-5.623,2.035,2.035,0,0,0-2.828,0,43.48,43.48,0,0,1-7.17,5.811c-1.259.816-2.556,1.574-3.889,2.262-1.266.653-3.035,1.117-3.462,2.67a3.629,3.629,0,0,0,.946,3.142c.866,1.148,1.779,2.262,2.69,3.375,1.753,2.141,3.536,4.258,5.282,6.4a2.014,2.014,0,0,0,2.829,0,2.047,2.047,0,0,0,0-2.829c-1.458-1.791-2.942-3.561-4.411-5.343-.827-1-1.653-2.008-2.463-3.025-.228-.287-.458-.573-.675-.87-.094-.129-.184-.286-.288-.408-.178-.209.044-.247.018.086l-.273,1.009q-.5.409-.044.15l.31-.143c.313-.147.625-.3.935-.448q.949-.471,1.875-.988,1.908-1.064,3.71-2.305a48.337,48.337,0,0,0,6.908-5.722H84.793a21.868,21.868,0,0,1,4.334,5.874V99.891c-3.019,4.924-5.83,10.025-9.937,14.152C77.373,115.87,80.2,118.7,82.019,116.872Z"/><path class="c" d="M60.662,114.043c-4.107-4.127-6.918-9.228-9.937-14.152v2.019a21.847,21.847,0,0,1,4.334-5.874H52.231a48.582,48.582,0,0,0,6.908,5.722q1.8,1.237,3.71,2.305.849.474,1.719.91.465.233.935.453.233.109.466.216.453.26-.044-.15l-.273-1.009c-.022-.285.215-.318.018-.086-.086.1-.154.223-.232.331-.232.324-.483.635-.731.947-.81,1.017-1.636,2.021-2.463,3.025-1.469,1.782-2.953,3.552-4.411,5.343a2.061,2.061,0,0,0,0,2.829,2.015,2.015,0,0,0,2.829,0c1.711-2.1,3.456-4.177,5.175-6.273.922-1.126,1.843-2.253,2.725-3.411a3.72,3.72,0,0,0,1.018-3.237c-.415-1.509-2.073-1.961-3.3-2.59q-2-1.023-3.892-2.243a43.515,43.515,0,0,1-7.324-5.91,2.036,2.036,0,0,0-2.828,0,24.248,24.248,0,0,0-4.293,5.472,7.649,7.649,0,0,0-.868,1.689,2.679,2.679,0,0,0,.587,2.171c.605.993,1.2,1.99,1.806,2.984a59.559,59.559,0,0,0,8.37,11.348C59.651,118.7,62.48,115.871,60.662,114.043Z"/><path class="e" d="M24.187,463.5c-.116-.151-.226-.308-.329-.469a8.807,8.807,0,0,1-.583-7.38,24.183,24.183,0,0,1,3.787-6.608q5.482-7.487,11.588-14.49c1.586-1.82,3.38-3.716,5.752-4.164a3.568,3.568,0,0,0,1.774,3.742,8.365,8.365,0,0,0,4.278.966,23.743,23.743,0,0,0,16.619-6.614c-.027,5,.022,6.663,0,11.664a10.48,10.48,0,0,1-.439,3.607c-1.027,2.78-4.075,4.119-6.521,5.793-6.363,4.354-9.714,12.3-16.382,16.17a17.212,17.212,0,0,1-15.914.57A10.016,10.016,0,0,1,24.187,463.5Z"/><path class="e" d="M118.421,463.5c.115-.151.225-.308.328-.469a8.807,8.807,0,0,0,.583-7.38,24.183,24.183,0,0,0-3.787-6.608q-5.483-7.487-11.587-14.49c-1.587-1.82-3.381-3.716-5.753-4.164a3.568,3.568,0,0,1-1.774,3.742,8.365,8.365,0,0,1-4.278.966,23.745,23.745,0,0,1-16.619-6.614c.028,5-.022,6.663,0,11.664a10.48,10.48,0,0,0,.439,3.607c1.028,2.78,4.075,4.119,6.521,5.793,6.363,4.354,9.715,12.3,16.382,16.17a17.212,17.212,0,0,0,15.914.57A10.027,10.027,0,0,0,118.421,463.5Z"/><path class="c" d="M25.913,462.493c-1.764-2.411-1.3-5.449-.01-7.976a55.593,55.593,0,0,1,5.739-8.271q3.174-4.14,6.559-8.112c1.829-2.153,3.807-5.162,6.733-5.814l-2.46-2.461a5.828,5.828,0,0,0,3.883,6.568c2.632,1.032,5.78.761,8.511.323A25.445,25.445,0,0,0,68.487,429.9l-3.414-1.414c-.022,4.261.165,8.554-.021,12.81-.093,2.138-1.178,3.407-2.892,4.565a57.672,57.672,0,0,0-5.2,3.609c-6.047,5.129-9.633,13.857-17.855,16-4.468,1.166-10.438.41-13.5-3.383a2.014,2.014,0,0,0-2.829,0,2.048,2.048,0,0,0,0,2.829c3.11,3.849,8.921,5.341,13.677,5.006a20.359,20.359,0,0,0,12.98-6.144c3.2-3.157,5.678-6.96,8.876-10.119a31.092,31.092,0,0,1,5.264-3.947,11.793,11.793,0,0,0,4.659-4.621c1.26-2.721.856-6.042.849-8.965-.006-2.547-.017-5.094,0-7.642a2.022,2.022,0,0,0-3.414-1.414,21.423,21.423,0,0,1-9.4,5.292,20.454,20.454,0,0,1-6.213.725c-1.137-.045-4.061-.4-3.718-2.165a2.027,2.027,0,0,0-2.461-2.46c-3.578.8-5.93,3.833-8.189,6.48q-4.026,4.721-7.782,9.662c-4.04,5.3-10.39,13.142-5.439,19.907a2.059,2.059,0,0,0,2.736.717A2.014,2.014,0,0,0,25.913,462.493Z"/><path class="c" d="M120.148,464.512c4.949-6.764-1.4-14.611-5.44-19.907q-3.763-4.932-7.782-9.662c-2.258-2.648-4.611-5.682-8.189-6.48a2.027,2.027,0,0,0-2.461,2.46c.343,1.766-2.586,2.12-3.718,2.165a20.454,20.454,0,0,1-6.213-.725,21.439,21.439,0,0,1-9.4-5.292,2.022,2.022,0,0,0-3.414,1.414c.012,2.269.006,4.537,0,6.805a48.183,48.183,0,0,0,.189,7.676c.812,5.082,5.969,6.587,9.377,9.571,3.39,2.967,5.9,6.763,8.938,10.057,3.234,3.5,7.2,6.272,11.985,7.07,5.372.894,12.207-.283,15.814-4.747a2.062,2.062,0,0,0,0-2.829,2.016,2.016,0,0,0-2.829,0c-2.682,3.32-7.738,4.32-11.787,3.739-4.286-.615-7.624-3.079-10.478-6.2-2.744-2.995-5.057-6.374-8-9.182a30.229,30.229,0,0,0-4.906-3.7c-1.437-.9-3.229-1.881-3.929-3.523A11.05,11.05,0,0,1,77.53,439q0-1.774,0-3.548c.007-2.324.014-4.647,0-6.97L74.12,429.9a25.448,25.448,0,0,0,13.62,6.851c2.665.427,5.737.7,8.323-.252a5.866,5.866,0,0,0,4.071-6.639l-2.461,2.461c2.863.638,4.786,3.526,6.578,5.632q3.459,4.063,6.714,8.294a57.561,57.561,0,0,1,5.642,8.083c1.344,2.571,1.9,5.682.087,8.164a2.014,2.014,0,0,0,.717,2.736A2.046,2.046,0,0,0,120.148,464.512Z"/></svg>