<?xml version="1.0" encoding="iso-8859-1"?>
<!-- Uploaded to: SVG Repo, www.svgrepo.com, Generator: SVG Repo Mixer Tools -->
<svg fill="#000000" height="800px" width="800px" version="1.1" id="Layer_1" xmlns="http://www.w3.org/2000/svg" xmlns:xlink="http://www.w3.org/1999/xlink" 
	 viewBox="0 0 512.004 512.004" xml:space="preserve">
<g>
	<g>
		<path d="M475.793,43.492c-4.011-4.14-10.204-5.283-15.429-2.851c-73.842,34.384-127.459,71.687-168.74,117.396
			c-36.932,40.897-59.229,83.139-82.834,127.863c-2.864,5.427-5.75,10.893-8.683,16.398c-5.51,10.341-24.941,12.94-46.644,13.098
			c0.099-0.083,0.193-0.157,0.294-0.241c4.764-3.956,20.823-17.644,27.451-27.722c3.975-6.049,9.176-15.666,8.445-29.302
			c-1.222-22.821-19.723-40.699-42.118-40.699c-10.901,0-20.095,5.22-26.716,10.657c-6.558-5.459-15.756-10.657-27.009-10.657
			c-22.395,0-40.895,17.878-42.117,40.7c-0.729,13.667,4.476,23.275,8.456,29.314c5.924,8.989,19.603,20.996,25.775,26.2
			c-13.97,0.35-26.325,2.036-35.619,6.735c-29.562,14.945-46.291,46.36-49.729,93.391c-0.003,0.032-0.013,0.175-0.016,0.207
			c-0.122,1.701-0.227,3.428-0.311,5.157l-0.038,0.721c-0.074,1.601-0.131,3.229-0.173,4.864l-0.007,0.183
			C0.012,425.3,0,425.697,0,426.1c0,22.622,32.383,31.979,56.739,37.049c29.366,6.113,67.773,9.479,108.147,9.479
			c5.164,0,10.074-0.077,14.587-0.227c2.335-0.077,4.611-0.174,6.83-0.294c1.118-0.06,2.221-0.125,3.308-0.195
			c42.899-2.778,67.125-14.37,86.407-41.346c1.419-1.985,2.856-4.12,4.27-6.343c6.376-10.033,12.673-22.398,21.054-41.346
			c23.199-52.472,45.325-91.237,68.107-119.018c22.667,69.483,22.984,193.861,22.984,195.238
			c0.001,7.471,6.058,13.528,13.529,13.528h45.15c7.242,0,13.199-5.703,13.516-12.938c4.775-109.012,22.039-180.333,34.646-232.409
			c3.089-12.76,5.757-23.779,7.928-34.057v-0.003c0.214-1.009,0.419-2.001,0.614-2.968l0.161-0.813c0-0.003,0.001-0.004,0.001-0.004
			c0.143-0.722,0.285-1.44,0.423-2.157l0.158-0.842c0.13-0.69,0.257-1.377,0.388-2.1l0.135-0.766
			c0.124-0.705,0.245-1.403,0.361-2.101l0.116-0.705c0.119-0.735,0.235-1.464,0.348-2.196l0.088-0.583
			c0.116-0.778,0.227-1.553,0.334-2.326l0.061-0.445c0.114-0.847,0.222-1.69,0.329-2.575c0.003-0.024,0.019-0.147,0.022-0.172
			c0.86-7.196,1.261-14.199,1.261-22.038C512,81.658,477.27,45.018,475.793,43.492z M82.743,272.559
			c-3.104-4.711-4.271-8.472-4.029-12.983c0.445-8.318,7.217-15.085,15.096-15.085c6.74,0,13.727,8.003,15.594,10.734
			c2.47,3.723,6.6,6.014,11.067,6.075c4.458,0.023,8.656-2.059,11.228-5.713c2.504-3.476,9.968-11.095,15.836-11.095
			c7.879,0,14.652,6.767,15.097,15.087c0.245,4.559-0.888,8.203-4.033,12.99c-5.497,8.36-28.343,27.843-37.848,33.457
			C111.168,300.365,88.216,280.862,82.743,272.559z M472.973,220.915c-12.363,51.072-29.118,120.286-34.747,224.654h-18.902
			c-0.766-37.798-5.072-144.45-29.161-203.805c0.081-0.076,0.162-0.15,0.245-0.226c1.364-1.251,2.734-2.465,4.109-3.649
			c18.449-15.851,38.158-25.756,61.426-30.522c0.042-0.008,0.084-0.018,0.126-0.027c1.998-0.407,4.028-0.771,6.08-1.103
			c0.172-0.028,0.341-0.06,0.513-0.085c1.914-0.304,3.859-0.567,5.822-0.806c0.304-0.036,0.603-0.081,0.909-0.116
			c1.835-0.214,3.7-0.387,5.58-0.547c0.432-0.035,0.855-0.084,1.289-0.116c0.214-0.016,0.436-0.024,0.651-0.039
			C475.695,209.675,474.379,215.111,472.973,220.915z M483.871,169.284c-0.003,0.019-0.018,0.137-0.019,0.154
			c-0.088,0.724-0.18,1.449-0.273,2.138l-0.057,0.406c-0.091,0.663-0.187,1.33-0.281,1.966l-0.083,0.541
			c-0.097,0.633-0.198,1.269-0.306,1.933l-0.097,0.594c-0.004,0.023-0.007,0.043-0.011,0.066c-0.557,0.022-1.107,0.051-1.661,0.077
			c-0.287,0.013-0.574,0.027-0.859,0.039c-37.758,1.839-67.886,12.478-95.471,33.749c-0.244,0.188-0.484,0.38-0.728,0.57
			c-0.79,0.616-1.579,1.238-2.366,1.871c-0.413,0.331-0.824,0.668-1.235,1.005c-0.655,0.536-1.31,1.08-1.962,1.629
			c-0.406,0.341-0.812,0.682-1.216,1.028c-0.211,0.18-0.422,0.354-0.632,0.536c-0.452,0.39-0.901,0.796-1.352,1.192
			c-0.428,0.376-0.856,0.751-1.284,1.131c-0.823,0.736-1.642,1.486-2.461,2.242c-0.238,0.219-0.478,0.436-0.714,0.658
			c-1.021,0.952-2.04,1.923-3.058,2.907c-0.042,0.041-0.083,0.08-0.124,0.12c-31.537,30.629-60.693,77.487-91.027,146.098
			c-7.805,17.645-13.529,28.942-19.143,37.775c-1.15,1.81-2.309,3.531-3.445,5.12c-12.245,17.131-26.994,27.544-66.145,30.08
			c-0.986,0.064-1.986,0.123-2.998,0.177c-2.042,0.108-4.135,0.198-6.286,0.269c-4.22,0.141-8.825,0.211-13.69,0.211
			c-34.484,0-68.068-2.611-94.564-7.353c-31.223-5.589-40.798-11.888-43.203-13.939c0.032-1.068,0.073-2.127,0.122-3.183
			l0.031-0.601c0.077-1.55,0.169-3.074,0.277-4.58c0.003-0.028,0.012-0.162,0.015-0.192c2.695-36.878,14.453-60.832,34.949-71.194
			c10.243-5.178,35.276-4.029,57.366-3.014c41.171,1.886,87.843,4.033,104.11-26.489c2.951-5.539,5.853-11.035,8.733-16.492
			c44.85-84.977,83.727-158.616,229.412-228.788c8.388,12.202,22.808,39.208,22.808,80.689
			C484.943,157.169,484.603,163.151,483.871,169.284z"/>
	</g>
</g>
<g>
	<g>
		<path d="M298.672,279.386c-0.177-0.866-0.433-1.718-0.771-2.544c-0.338-0.812-0.758-1.596-1.245-2.327
			c-0.501-0.744-1.069-1.434-1.691-2.057c-3.139-3.152-7.82-4.588-12.203-3.707c-0.866,0.176-1.718,0.433-2.53,0.771
			c-0.825,0.338-1.61,0.758-2.341,1.245c-0.744,0.501-1.434,1.069-2.057,1.691c-0.622,0.622-1.191,1.312-1.678,2.057
			c-0.487,0.731-0.906,1.515-1.245,2.327c-0.338,0.825-0.595,1.678-0.771,2.545c-0.176,0.866-0.271,1.759-0.271,2.637
			c0,3.558,1.448,7.049,3.964,9.565c0.622,0.622,1.312,1.191,2.056,1.678c0.731,0.486,1.515,0.906,2.341,1.245
			c0.812,0.338,1.664,0.594,2.53,0.771c0.866,0.176,1.759,0.269,2.638,0.269c3.572,0,7.049-1.446,9.565-3.964
			c2.53-2.516,3.964-6.007,3.964-9.565C298.929,281.145,298.847,280.251,298.672,279.386z"/>
	</g>
</g>
<g>
	<g>
		<path d="M460.207,109.827c-2.17-7.149-9.725-11.185-16.875-9.017c-7.15,2.17-11.187,9.725-9.017,16.877
			c1.803,5.946,3.087,12.212,3.837,18.727c-54.728,11.951-99.173,43.769-139.057,99.296c-4.359,6.068-2.972,14.522,3.095,18.882
			c2.389,1.717,5.148,2.542,7.882,2.542c4.209,0,8.357-1.958,10.999-5.638c38.84-54.073,80.019-82.035,133.523-90.667
			c6.662-1.076,11.513-6.895,11.373-13.639C465.693,134.09,463.756,121.519,460.207,109.827z"/>
	</g>
</g>
</svg>